<?xml version="1.0" encoding="utf-8"?>
<!-- Generator: Adobe Illustrator 15.0.0, SVG Export Plug-In . SVG Version: 6.00 Build 0)  -->
<!DOCTYPE svg PUBLIC "-//W3C//DTD SVG 1.1//EN" "http://www.w3.org/Graphics/SVG/1.1/DTD/svg11.dtd">
<svg version="1.1" id="Layer_1" xmlns="http://www.w3.org/2000/svg" xmlns:xlink="http://www.w3.org/1999/xlink" x="0px" y="0px"
	 width="249.473px" height="113.575px" viewBox="0 0 249.473 113.575" enable-background="new 0 0 249.473 113.575"
	 xml:space="preserve">
<g>
	<path fill="#FFFFFF" d="M52.436,112.219c-1.973,0-4.018-0.089-6.083-0.266c-0.651-0.034-1.292-0.122-1.916-0.262
		c-0.003-0.001-0.006-0.001-0.009-0.001c-0.401-0.041-0.8-0.084-1.197-0.139l-0.264-0.039c-3.66-0.602-7.154-1.716-10.39-3.313
		c-5.081-2.345-9.283-5.845-12.49-10.404c-3.41-4.821-5.144-10.662-5.141-17.339c-0.003-2.38,0.326-4.869,0.979-7.376l0.087-0.336
		l0.11-0.328c0.881-2.622,2.046-4.828,3.552-6.722c1.037-1.485,2.263-2.781,3.667-3.876c-0.07-0.086-0.541-0.663-0.541-0.663
		c-0.668-0.827-1.15-1.542-1.549-2.153c-1.666-2.447-3.054-5.182-4.244-8.356c-1.349-3.508-2.049-7.603-2.052-12.092
		c0.002-5.044,0.871-9.837,2.582-14.259c1.826-4.627,4.364-8.463,7.783-11.789c3.341-3.314,7.505-5.917,12.378-7.738
		c4.611-1.749,9.786-2.607,15.774-2.607c1.927,0,4.007,0.117,6.353,0.358l0.457,0.03c0.715,0.05,1.38,0.131,2.051,0.22l0.445,0.058
		l0.169,0.028c3.718,0.609,7.242,1.727,10.476,3.325c4.996,2.322,9.175,5.826,12.423,10.416l0.114,0.164
		c0.975,1.438,1.806,2.961,2.493,4.566l0.003-0.013c0.716-3.121,1.607-5.677,2.723-7.81c1.423-2.805,3.394-5.131,5.86-6.917
		c2.593-1.842,5.602-2.991,9.019-3.466c2.387-0.351,5.258-0.533,8.462-0.533c1.871,0,3.791,0.042,5.708,0.125l0.236,0.013
		c2.605,0.174,5.031,0.604,7.211,1.276l0.28,0.086l0.275,0.103c2.607,0.975,4.877,2.356,6.745,4.105
		c0.074,0.068,0.147,0.137,0.221,0.206c0.55-0.632,1.146-1.233,1.789-1.802c3.953-3.496,8.755-5.341,13.892-5.341
		c3.908,0,7.402,1.007,10.404,2.994c2.16,1.402,4.121,3.26,5.76,5.476l0.121,0.168c1.509,2.131,2.673,4.52,3.463,7.1
		c0.021,0.071,0.044,0.143,0.065,0.214c0.476-1.359,1.905-5.156,3.861-7.735c1.61-2.155,3.576-3.96,5.969-5.464l0.171-0.105
		c2.917-1.752,6.365-2.641,10.25-2.641c5.902,0,11.039,2.2,14.856,6.361l0.124,0.135l0.119,0.14c3.37,3.956,5.15,8.848,5.146,14.146
		c0,2.009-0.214,3.92-0.636,5.695c1.23-0.235,2.5-0.358,3.798-0.358c11.137,0.011,20.18,9.066,20.174,20.187
		c-0.007,6.976-3.568,13.135-8.963,16.758c5.396,3.626,8.953,9.787,8.953,16.765c0,11.126-9.051,20.177-20.176,20.177
		s-20.176-9.051-20.176-20.177c0-6.975,3.557-13.134,8.951-16.761c-1.083-0.728-2.103-1.567-3.045-2.511
		c-0.58-0.581-1.12-1.191-1.619-1.827l-6.616,17.106l-0.034,6.944c-0.081,5.823-0.222,8.562-0.561,10.942l-0.026,0.185l-0.033,0.184
		c-0.814,4.513-3.211,8.582-6.931,11.77l-0.173,0.147l-0.18,0.141c-2.001,1.562-4.179,2.686-6.657,3.436l-0.54,0.163l-0.556,0.102
		c-1.947,0.356-3.703,0.529-5.369,0.529c-1.496,0-3.521-0.07-5.915-0.618l-0.353-0.088c-3.016-0.807-5.829-2.467-8.359-4.934
		l-0.175-0.171l-0.167-0.18c-1.11-1.194-2.071-2.477-2.871-3.824c-0.87,1.427-1.925,2.753-3.158,3.965l-0.149,0.144
		c-4.023,3.792-9.125,5.796-14.754,5.796h-0.015c-4.058,0-7.643-0.84-10.649-2.495l-0.311-0.171l-0.297-0.192
		c-2.528-1.635-4.613-3.646-6.197-5.979l-0.101-0.148l-0.095-0.152c-0.897-1.429-1.621-2.979-2.19-4.695
		c-0.508,1.565-1.204,3.083-2.08,4.535c-1.504,2.467-3.527,4.56-6.037,6.264c-2.303,1.606-4.932,2.258-6.982,2.646l-0.255,0.045
		c-1.296,0.211-2.597,0.318-3.865,0.318c-1.152,0-2.308-0.089-3.435-0.263l-0.165-0.026c-1.354-0.232-2.841-0.635-4.419-1.197
		c-2.315-0.804-4.043-1.658-5.419-2.68c-1.432-1.048-2.774-2.359-3.92-3.826c-2.88,2.384-6.263,4.343-10.072,5.823l-0.238,0.089
		C63.534,111.381,58.254,112.219,52.436,112.219z"/>
	<path fill="#EC008C" d="M108.112,80.852l13.885,0.006l0.029-0.032c0.215,1.056,1.833,11.203,2.073,12.548
		c0.329,1.411,0.817,2.791,1.579,4.004c0.856,1.261,1.979,2.311,3.356,3.201c1.467,0.808,3.404,1.255,5.832,1.255
		c3.168,0.002,5.753-1.046,7.904-3.073c2.1-2.062,3.158-4.694,3.158-7.856c0-0.929-0.076-1.862-0.243-2.79
		c-0.157-0.85-0.29-1.743-0.445-2.676l-12.692-61.03c-0.285-0.932-0.529-1.818-0.812-2.789c-0.361-1.134-0.768-2.188-1.293-3.203
		c-0.568-1.016-1.339-1.943-2.269-2.792c-0.899-0.851-2.024-1.537-3.442-2.066c-1.456-0.449-3.119-0.733-4.934-0.854
		c-1.828-0.079-3.615-0.116-5.276-0.116c-2.794,0-5.178,0.158-7.083,0.438c-1.782,0.248-3.277,0.77-4.531,1.661
		c-1.176,0.852-2.107,1.942-2.837,3.401c-0.729,1.376-1.345,3.194-1.865,5.462L85.151,83.885c-0.288,1.212-0.527,2.303-0.73,3.399
		c-0.208,1.092-0.29,2.222-0.293,3.353c0.002,2.152,0.406,3.929,1.178,5.392c0.242,0.45,0.485,0.852,0.764,1.294
		c0.612,0.85,1.388,1.662,2.231,2.273c0.527,0.399,1.502,0.844,2.8,1.292c1.128,0.404,2.06,0.649,2.789,0.774
		c1.298,0.2,2.676,0.2,4.171-0.043c1.497-0.283,2.551-0.605,3.158-1.049c1.339-0.896,2.394-1.947,3.158-3.2
		c0.734-1.217,1.255-2.552,1.499-3.927L108.112,80.852z M114.196,37.447c0.164-1.139,0.53-1.664,0.977-1.582
		c0.484,0,0.809,0.527,0.975,1.655l3.382,25.641l-8.944-0.005L114.196,37.447z M55.368,44.676c-2.261-1.54-4.166-3-5.666-4.419
		c-1.494-1.376-2.27-3.034-2.27-5.059c0-1.622,0.569-2.956,1.741-4.011c1.097-1.006,2.515-1.492,4.212-1.492
		c1.059,0,2.03,0.196,2.963,0.644c1.498,0.685,2.911,2.631,4.244,5.751c0.528,1.578,0.944,2.737,1.353,4.362
		c0.44,1.391,0.991,2.293,1.972,3.453c1.652,1.703,3.841,2.594,6.55,2.597c1.788-0.002,3.327-0.323,4.62-0.934
		c1.336-0.678,2.383-1.611,3.205-2.872c0.844-1.053,1.571-2.391,2.062-3.969c0.37-1.539,0.534-3.153,0.534-4.771
		c0-4.54-1.061-8.427-3.202-11.584c-2.267-3.203-5.141-5.596-8.583-7.174c-2.426-1.213-5.02-2.025-7.769-2.475
		c-0.573-0.074-1.137-0.155-1.706-0.195l-0.645-0.042c-1.901-0.2-3.731-0.324-5.507-0.324c-4.65,0-8.743,0.635-12.275,1.975
		c-3.48,1.3-6.474,3.116-8.87,5.504c-2.428,2.352-4.204,5.067-5.465,8.263c-1.251,3.235-1.906,6.796-1.908,10.646
		c0.002,3.201,0.451,6.078,1.416,8.589c0.896,2.39,1.948,4.493,3.2,6.317c0.329,0.506,0.612,0.928,1.008,1.418
		c0.131,0.144,0.149,0.184,0.33,0.4c0.856,1.094,1.864,1.903,2.874,2.761c1.621,1.292,3.155,2.428,4.694,3.36
		c0.807,0.644,1.777,1.257,2.874,1.898c0.975,0.775,1.982,1.502,3.079,2.188c1.219,0.818,2.304,1.582,3.312,2.348
		c1.141,0.695,2.108,1.385,2.879,1.95c2.272,1.462,4.168,2.915,5.63,4.293c1.492,1.376,2.226,3.118,2.226,5.184
		c-0.004,1.581-0.569,2.878-1.744,3.927c-1.094,1.014-2.47,1.542-4.133,1.542c-1.539-0.064-2.139-0.396-2.956-0.734
		c-2.37-1.312-3.733-3.638-4.571-6.554c-0.649-2.52-1.012-3.85-1.091-4.055c-0.288-1.008-0.931-1.985-1.946-2.953
		c-1.65-1.707-3.849-2.557-6.519-2.557c-1.817,0-3.357,0.358-4.743,1.012c-1.25,0.65-2.262,1.539-3.074,2.795
		c-0.927,1.086-1.582,2.387-2.098,3.923c-0.411,1.578-0.659,3.2-0.656,4.86c-0.002,4.534,1.089,8.427,3.319,11.58
		c2.226,3.163,5.142,5.551,8.621,7.133c2.436,1.219,4.982,2.024,7.701,2.471c0.599,0.082,1.208,0.121,1.816,0.209
		c0.12,0.071,0.321,0.116,0.57,0.116c1.903,0.169,3.715,0.249,5.461,0.249c4.694,0,8.831-0.649,12.312-1.901
		c3.446-1.339,6.438-3.198,8.83-5.581c2.385-2.352,4.247-5.067,5.512-8.227c1.21-3.242,1.785-6.801,1.785-10.685
		c0-3.241-0.409-6.119-1.306-8.587c-0.841-2.389-1.718-4.27-3.016-6.056c-0.342-0.445-0.379-0.556-0.75-1.046
		c-0.395-0.447-0.438-0.522-0.761-0.876c-0.931-1.136-1.898-2.068-2.914-2.921c-1.664-1.292-3.195-2.388-4.655-3.438L55.368,44.676z
		 M172.337,46.304c-0.306,1.102-0.54,1.468-1.134,1.468c-0.506,0.027-0.873-0.406-1.195-1.369
		c-0.335-0.933-3.429-8.349-8.943-26.382c-0.482-1.577-1.178-2.998-2.062-4.248c-0.93-1.257-1.986-2.27-3.236-3.082
		c-1.342-0.888-2.959-1.333-4.866-1.333c-2.745-0.005-5.176,0.965-7.284,2.829c-2.106,1.865-3.156,4.448-3.156,7.648
		c0,1.418,0.195,2.878,0.684,4.252c0.402,1.385,0.842,2.678,1.377,4.016l17.247,45.198l-0.011,8.605
		c0.124,5.264,0.223,7.17,0.422,9.1c0.287,2.104,1.332,4.195,2.952,5.938c1.292,1.26,2.589,2.066,3.962,2.434
		c1.369,0.313,2.6,0.366,3.684,0.366c1.094,0,2.268-0.128,3.57-0.366c1.272-0.385,2.348-0.926,3.398-1.746
		c1.982-1.698,3.187-3.683,3.596-5.95c0.256-1.8,0.385-4.116,0.461-9.584l0.043-8.786l17.481-45.194
		c0.442-1.458,0.891-2.755,1.333-3.967c0.367-1.213,0.531-2.552,0.531-4.008c0.002-2.958-0.926-5.504-2.759-7.656
		c-1.933-2.107-4.405-3.121-7.487-3.121c-2.105,0-3.758,0.407-5.1,1.213c-1.292,0.812-2.386,1.787-3.322,3.04
		c-0.888,1.17-1.943,3.69-2.431,5.112L172.337,46.304z M224.526,47.666c-0.006,5.621-4.551,10.177-10.172,10.177
		c-5.633,0-10.186-4.562-10.177-10.18c0-5.629,4.55-10.182,10.181-10.179C219.979,37.489,224.529,42.037,224.526,47.666
		 M224.516,81.194c0,5.625-4.551,10.177-10.176,10.177c-5.629,0-10.176-4.555-10.176-10.177c0-5.625,4.555-10.181,10.18-10.181
		S224.516,75.573,224.516,81.194"/>
</g>
</svg>
